# xmcd
#
# Track frame offsets:
#	150
#	34369
#	57689
#	81003
#	101787
#	125907
#	159734
#	186376
#	205741
#	236049
#
# Disc length: 3397 seconds
#
# Revision: 0
# Processed by: cddbd v1.5.2PL0 Copyright (c) Steve Scherf et al.
# Submitted via: audiograbber 1.83.01
#
DISCID=980d430a
DTITLE=Deep Purple - 1990-1996 [CD 1)
DYEAR=2004
DGENRE=HardRock
TTITLE0=Speed King [live]
TTITLE1=A Castle Full Of Rascals
TTITLE2=Rosa's Cantina
TTITLE3=A Touch Away
TTITLE4=The Aviator
TTITLE5=Sometimes I Feel Like Screaming
TTITLE6=Hey Cisco
TTITLE7=Vavoom: Ted The Mechanic
TTITLE8=Highway Star [live]
TTITLE9=Somebody Stole My Guitar
EXTD=
EXTT0=
EXTT1=
EXTT2=
EXTT3=
EXTT4=
EXTT5=
EXTT6=
EXTT7=
EXTT8=
EXTT9=
PLAYORDER=
